<?xml version="1.0" encoding="UTF-8"?><svg id="Layer_2" xmlns="http://www.w3.org/2000/svg" width="147.62" height="204.63" xmlns:xlink="http://www.w3.org/1999/xlink" viewBox="0 0 147.62 204.63"><defs><filter id="drop-shadow-1" x="-4.25" y="-4.71" width="160" height="218" filterUnits="userSpaceOnUse"><feOffset dx="2" dy="2"/><feGaussianBlur result="blur" stdDeviation="2"/><feFlood flood-color="#000" flood-opacity=".6"/><feComposite in2="blur" operator="in"/><feComposite in="SourceGraphic"/></filter><linearGradient id="linear-gradient" x1="210.27" y1="159.88" x2="8.77" y2="74.88" gradientUnits="userSpaceOnUse"><stop offset="0" stop-color="#f2efc2"/><stop offset=".19" stop-color="#835d1f"/><stop offset=".29" stop-color="#977744"/><stop offset=".51" stop-color="#3a2015"/><stop offset=".7" stop-color="#542e18"/><stop offset=".97" stop-color="#977744"/></linearGradient><linearGradient id="linear-gradient-2" x1="21.31" y1="-17.62" x2="146.8" y2="32.63" gradientUnits="userSpaceOnUse"><stop offset=".02" stop-color="#977744"/><stop offset=".32" stop-color="#f2efc2"/><stop offset=".62" stop-color="#977744"/><stop offset="1" stop-color="#835d1f"/></linearGradient><linearGradient id="linear-gradient-3" x1="8.36" y1="-29.79" x2="3.03" y2="173.54" gradientUnits="userSpaceOnUse"><stop offset="0" stop-color="#835d1f"/><stop offset=".21" stop-color="#f2efc2"/><stop offset=".42" stop-color="#977744"/><stop offset=".61" stop-color="#3a2015"/><stop offset=".8" stop-color="#542e18"/><stop offset=".98" stop-color="#977744"/></linearGradient><linearGradient id="linear-gradient-4" x1="144.96" y1="7.69" x2="138.96" y2="259.69" xlink:href="#linear-gradient-3"/><linearGradient id="linear-gradient-5" x1="73.81" y1="196.63" x2="73.81" y2="8" gradientUnits="userSpaceOnUse"><stop offset=".08" stop-color="#f2efc2"/><stop offset=".34" stop-color="#977744"/><stop offset="1" stop-color="#3a2015"/></linearGradient><linearGradient id="linear-gradient-6" x1="73.81" y1="204.63" x2="73.81" y2="0" gradientUnits="userSpaceOnUse"><stop offset="0" stop-color="#3a2015"/><stop offset=".66" stop-color="#977744"/><stop offset=".92" stop-color="#f2efc2"/></linearGradient></defs><g id="OBJECTS"><g filter="url(#drop-shadow-1)"><path d="M146.62,203.63H1V1h145.62v202.63ZM9,195.63h129.62V9H9v186.63Z" fill="url(#linear-gradient)"/><polygon points="9 9 138.62 9 146.62 1 1 1 9 9" fill="url(#linear-gradient-2)"/><polygon points="9 195.63 9 9 1 1 1 203.63 9 195.63" fill="url(#linear-gradient-3)"/><polygon points="138.62 9 146.62 1 146.62 203.63 138.62 195.63 138.62 9" fill="url(#linear-gradient-4)"/><path d="M139.62,196.63H8V8h131.62v188.63ZM10,194.63h127.62V10H10v184.63Z" fill="url(#linear-gradient-5)"/><path d="M147.62,204.63H0V0h147.62v204.63ZM2,202.63h143.62V2H2v200.63Z" fill="url(#linear-gradient-6)"/></g></g></svg>