<?xml version="1.0" encoding="UTF-8"?><svg id="Layer_2" xmlns="http://www.w3.org/2000/svg" xmlns:xlink="http://www.w3.org/1999/xlink" viewBox="0 0 156.36 204.63"><defs><filter id="drop-shadow-1" x="-4.25" y="-4.71" width="160" height="218"><feOffset dx="2" dy="2"/><feGaussianBlur result="blur" stdDeviation="2"/><feFlood flood-color="#000" flood-opacity=".6"/><feComposite in2="blur" operator="in"/><feComposite in="SourceGraphic"/></filter><linearGradient id="linear-gradient" x1="219.73" y1="162.03" x2="10.71" y2="73.85" gradientUnits="userSpaceOnUse"><stop offset="0" stop-color="#f2efc2"/><stop offset=".19" stop-color="#835d1f"/><stop offset=".29" stop-color="#977744"/><stop offset=".51" stop-color="#3a2015"/><stop offset=".7" stop-color="#542e18"/><stop offset=".97" stop-color="#977744"/></linearGradient><linearGradient id="linear-gradient-2" x1="22.65" y1="-18.93" x2="155.58" y2="34.29" gradientUnits="userSpaceOnUse"><stop offset=".02" stop-color="#977744"/><stop offset=".32" stop-color="#f2efc2"/><stop offset=".62" stop-color="#977744"/><stop offset="1" stop-color="#835d1f"/></linearGradient><linearGradient id="linear-gradient-3" x1="8.66" y1="-29.79" x2="3.32" y2="173.55" gradientUnits="userSpaceOnUse"><stop offset="0" stop-color="#835d1f"/><stop offset=".21" stop-color="#f2efc2"/><stop offset=".42" stop-color="#977744"/><stop offset=".61" stop-color="#3a2015"/><stop offset=".8" stop-color="#542e18"/><stop offset=".98" stop-color="#977744"/></linearGradient><linearGradient id="linear-gradient-4" x1="153.41" y1="7.68" x2="147.41" y2="259.68" xlink:href="#linear-gradient-3"/><linearGradient id="linear-gradient-5" x1="78.18" y1="196.63" x2="78.18" y2="8" gradientUnits="userSpaceOnUse"><stop offset=".08" stop-color="#f2efc2"/><stop offset=".34" stop-color="#977744"/><stop offset="1" stop-color="#3a2015"/></linearGradient><linearGradient id="linear-gradient-6" x1="78.18" y1="204.63" x2="78.18" y2="0" gradientUnits="userSpaceOnUse"><stop offset="0" stop-color="#3a2015"/><stop offset=".66" stop-color="#977744"/><stop offset=".92" stop-color="#f2efc2"/></linearGradient></defs><g id="OBJECTS"><g filter="url(#drop-shadow-1)"><path d="M155.3,203.63H1.06V1h154.24v202.63ZM9.53,195.63h137.29V9H9.53v186.63Z" fill="url(#linear-gradient)"/><polygon points="9.53 9 146.82 9 155.3 1 1.06 1 9.53 9" fill="url(#linear-gradient-2)"/><polygon points="9.53 195.63 9.53 9 1.06 1 1.06 203.63 9.53 195.63" fill="url(#linear-gradient-3)"/><polygon points="146.82 9 155.3 1 155.3 203.63 146.82 195.63 146.82 9" fill="url(#linear-gradient-4)"/><path d="M147.88,196.63H8.47V8h139.41v188.63ZM10.59,194.63h135.17V10H10.59v184.63Z" fill="url(#linear-gradient-5)"/><path d="M156.36,204.63H0V0h156.36v204.63ZM2.12,202.63h152.12V2H2.12v200.63Z" fill="url(#linear-gradient-6)"/></g></g></svg>